<?xml version="1.0" encoding="UTF-8" standalone="no"?>
<!DOCTYPE svg PUBLIC "-//W3C//DTD SVG 1.1//EN" "http://www.w3.org/Graphics/SVG/1.1/DTD/svg11.dtd">
<svg width="100%" height="100%" viewBox="0 0 100 100" version="1.1" xmlns="http://www.w3.org/2000/svg" xmlns:xlink="http://www.w3.org/1999/xlink" xml:space="preserve" xmlns:serif="http://www.serif.com/" style="fill-rule:evenodd;clip-rule:evenodd;stroke-linecap:round;stroke-linejoin:round;stroke-miterlimit:1.5;">
    <g transform="matrix(0.856625,0,0,0.852249,9.55299,5.97662)">
        <path d="M47.217,23.299C31.646,23.299 19.005,36.005 19.005,51.656C19.005,67.306 31.646,80.012 47.217,80.012C62.787,80.012 75.428,67.306 75.428,51.656C75.428,36.005 62.787,23.299 47.217,23.299ZM47.217,28.188C60.103,28.188 70.564,38.704 70.564,51.656C70.564,64.608 60.103,75.123 47.217,75.123C34.331,75.123 23.869,64.608 23.869,51.656C23.869,38.704 34.331,28.188 47.217,28.188Z" style="fill:rgb(76,200,255);"/>
    </g>
    <g transform="matrix(0.802049,0,0,0.728561,12.5646,6.78805)">
        <ellipse cx="77.862" cy="21.903" rx="6.251" ry="6.845" style="fill:rgb(76,200,255);stroke:rgb(76,200,255);stroke-width:3.53px;"/>
    </g>
    <g transform="matrix(2.04277,0,0,1.68327,-1.18004,-1.04907)">
        <path d="M46.661,16.946C46.661,9.71 41.821,3.835 35.858,3.835L14.251,3.835C8.288,3.835 3.447,9.71 3.447,16.946L3.447,43.709C3.447,50.945 8.288,56.82 14.251,56.82L35.858,56.82C41.821,56.82 46.661,50.945 46.661,43.709L46.661,16.946Z" style="fill:none;stroke:rgb(76,200,255);stroke-width:2.23px;"/>
    </g>
</svg>
