<svg version="1" xmlns="http://www.w3.org/2000/svg" width="640" height="640" viewBox="0 0 480.000000 480.000000"><path d="M0 240v240h480V0H0v240zm371.9-121.4c3.5 2.5 5.1 7.5 5.1 15.6 0 19.2-7.4 45.9-17.2 62.1-3.9 6.4-4 7.1-3.6 13 .6 6.9 3.2 12.9 7.2 16.7 3.1 2.8 4.8 2.3 8.1-2.7 2.8-4.1 9.1-22.8 11.4-33.9 2.2-10.7 3.4-13.4 6.2-13.4 2.8 0 3.1 1.7 2 11-2 15.3-2.5 35.6-1.1 38.9 1.5 3.8 2.3 3.9 4.8.3 4-5.8 7.4-19.2 9.7-38.2 1.9-15.8 3.1-19 7.1-19 2.6 0 2.6.1 2.1 5.2-.3 2.9-1.2 8.4-2.1 12.3-1.2 5.3-1.6 12.7-1.6 30 0 25 .3 28 2.9 27 .9-.4 4-1.1 7-1.6 6.6-1.3 11.1.2 11.1 3.5 0 2.1-.4 2.2-6.4 1.8-3.5-.2-7.9.1-9.8.7l-3.3 1.1v12.7c0 25.9-7.8 38.4-24 38.5-5.6.1-8.5-1.1-12.8-5.1-4.3-3.9-5.9-7.8-6-14.1 0-7.8 3-13.6 10.6-20.5 5.2-4.7 18.1-12.2 24-13.9 1.4-.4 1.7-1.7 1.7-7.3 0-8-1-17.3-1.9-17.3-.3 0-1.7 2.1-3.1 4.7-1.4 2.6-3.7 5.4-5.2 6.3-2.5 1.3-3.1 1.3-6.2-.4-4.2-2.3-6.6-7.5-6.6-14.9l-.1-5.2-1.9 5.3c-4.6 12.8-9.7 18-16 16.2-4.3-1.2-6.7-3.5-9.6-9.2-3.4-6.8-4.5-12.9-4.5-25.5.1-15.8 1.7-31.9 5.1-49.6 6-30.7 6.7-32.7 11.9-32.7 1.5 0 3.7.7 5 1.6zM263 122c2.1 1.1 4.2 2.5 4.5 3.1.4.6-.7 3-2.3 5.3-8.7 12-15.2 39.9-15.2 64.3.1 19.9 2.4 28.2 9.3 32.3 12.2 7.5 23.7-5.5 32.3-36.8 4.2-15.5 6.9-37.9 6-51.4-.6-9-.5-9.7 1.4-10.3 1.9-.6 6.7 1.2 10.3 3.9 1.7 1.3 1.7 1.6-.3 7.5-4.9 14.6-9.9 81.1-6.9 92.6 1.7 6.5 1.6 7-1 7-5.2 0-7.9-8.9-8.1-26.5v-6.5l-4.6 9c-8.1 16-15.5 21-27.2 18.4-6.5-1.4-11.5-5.1-14.6-11-3.7-6.6-4.5-9.7-5.5-20.6-1.1-11.2.1-26.2 3.2-40 1.3-5.7 1.9-9.9 1.3-9.5-.6.3-3.1 2-5.5 3.6-5.6 3.7-13.5 4.7-17.5 2.1-3.3-2.2-2.5-3.5 2.2-3.5s10.7-2.8 15.7-7.1c4.3-3.8 11.7-14.7 15.4-22.7 1.4-2.8 2.6-5.2 2.8-5.2.2 0 2.1.9 4.3 2zm70.8 54.1l8.3 8-1.9 5.2c-3.3 8.7-5.4 24.1-5.3 38.1 0 7.1.3 13.1.5 13.4.3.2 5.2.4 11 .3 9.7-.2 10.5-.1 12 2 2.3 3.4.4 6.3-3.7 5.5-6.4-1.3-13.7-1.8-16.2-1.2-2.5.6-2.5.6-2.5 12.3 0 14.4-1.3 22.4-4.8 28.8-9.9 18.1-41.2 8.9-44.8-13.3-1.9-11.8 10.2-22.4 33.9-29.6l8.7-2.7-.1-5.7c0-3.1-.4-6.5-.8-7.6-.6-1.5-1.1-1.2-3.4 2.2-3.2 4.9-5.6 5.8-9.6 3.7-4.8-2.4-6.4-6.7-6.9-17.5-.3-7.7.1-11.7 2.3-21 3.2-13.9 6.8-24.5 9.1-27.1 3-3.3 5.5-2.2 14.2 6.2zM133 192v18.9l5-3.1c4.4-2.7 5.5-3 11-2.6 6.8.5 10.4 2.6 13.4 7.7 1.6 2.9 2 6 2.4 24.6l.5 21.4 3.1.3c1.7.2 3.1.7 3.1 1.3 0 .6-5.3 1.1-13.2 1.3-11.4.2-13.3 0-13.3-1.3 0-1.1 1.1-1.5 4-1.5h4v-20.4c0-11.6-.4-21.6-1-23.3-2.1-5.9-10.3-7.2-15.1-2.4l-2.9 2.9V259h3.5c2.4 0 3.5.5 3.5 1.5 0 1.3-2.1 1.5-13 1.5s-13-.2-13-1.5c0-1 1.1-1.5 3.5-1.5h3.5l-.2-39.2c-.3-38.4-.3-39.3-2.3-39.6-8.4-1.2-8.7-2.8-.8-3.8 3.2-.4 7.1-1.3 8.8-2 5.6-2.5 5.5-2.9 5.5 17.6zm-22.6-17.2c.2.4.8 6.1 1.2 12.6.6 11.2.6 11.8-1.2 11.4-1.3-.2-2.1-1.8-3-5.8-2.3-11.4-4.8-13.8-15.4-14.5l-7-.4.2 39.7.3 39.7 4.2.6c4.8.6 6.1 1.5 4.7 2.9-1.5 1.5-32.6.9-33.1-.7-.3-.7 1.1-1.4 3.4-1.8 2.1-.4 4.4-.8 5.1-1 .9-.4 1.2-9.2 1.2-39.7v-39.3l-6.7.6c-3.8.3-7.6.9-8.5 1.3-2.6 1.2-5.6 6.6-6.4 11.6-.9 5.7-2.1 7.5-4.1 5.8-1.1-.9-1.3-2.9-.8-9.2.3-4.5.8-9.6 1.1-11.4l.5-3.2H78c17.5 0 32.1.3 32.4.8zm98.2 32.1c2.2 1 5.4 3.3 7.1 5.1 3.3 3.5 6 10.7 4.6 12.1-.5.5-8 1-16.8 1.1l-16 .3v8.5c0 14.7 5 22.6 14.8 23.7 5.6.7 9.8-1.5 12.8-6.4 2.5-4.2 3.9-5.4 5.1-4.7 1.6 1 .7 3.3-3.3 8.4-4.7 6-9.1 8.1-16.4 8.1-6.5 0-11.1-1.8-16.5-6.7-4.9-4.5-7.5-9.2-8.8-16.1-2.5-13.9 4.7-28.9 16.2-33.9 4.4-1.9 12.4-1.7 17.2.5zm-131.7 70c7.3 3.7 7.8 3.8 9.3.6.6-1.4 1.7-2.5 2.5-2.5 1.1 0 1.2 2.3.8 12.2-.4 6.8-.8 13.3-1.1 14.6-.7 3.5-2.7 2.1-4.2-2.9-2.8-9.7-3.5-11.5-5.8-14.5-5.1-6.9-16.5-9.3-25-5.5-9.7 4.4-16.4 20.6-16.4 39.5 0 9.7 1.6 17.8 5 25.1 4.9 10.7 12 15.7 21.9 15.7 7.1 0 11.9-2.1 16-6.8 3.6-4.1 4.7-6.3 7-14.9 1.1-3.9 2.2-6 3.1-6 1.3 0 1.5 2.5 1.5 15.4 0 16.7-.7 18.8-4.3 12.7l-2.1-3.6-5.2 3.3c-5.1 3.1-5.5 3.2-16.8 3.2-10.8 0-12-.2-17-2.9-6.7-3.5-14.7-11.4-18.3-18.1-7.7-14.4-7.1-36.1 1.4-50.2 3.5-5.8 11-12.6 16.7-15 9.9-4.2 21.8-4 31 .6zm137.5 1.7c1.9 1.8 2.1 7.5.4 9.2-3.2 3.2-10.8.2-10.8-4.2 0-5.6 6.7-8.8 10.4-5zM440.8 302l.3 5.3 7-.6c5.4-.5 6.9-.3 6.9.8 0 1.8-2.3 2.5-8.6 2.5H441v20.9c0 11.5.4 22.1.9 23.4 1.3 3.3 4.4 4.2 7.8 2.3 1.6-.8 3.8-2 5.1-2.7 3.5-1.9 3.8-.2.6 3.2-4.3 4.5-7.6 5.9-14.2 5.9-11.2 0-12-2.2-12.1-33.8L429 310h-4c-5.5 0-5.2-2.3.5-3.8 3.2-.9 5.8-2.6 8.8-5.7 2.3-2.5 4.7-4.3 5.2-4.2.6.2 1.1 2.7 1.3 5.7zM263 313.1c0 10.1-1.1 11.3-4.1 4.5-2.5-5.7-6.5-8.6-11.7-8.6-3.2 0-4.5.6-6.1 2.6-2.5 3.2-2.7 7.1-.6 10.1.9 1.3 5.5 4.1 10.3 6.3 4.8 2.3 9.7 5.1 11 6.3 5.1 4.8 6.6 11.5 3.8 18-1.5 3.8-7.6 9.4-11.1 10.3-3.4.8-11.4 0-15.3-1.7-3-1.3-3.5-1.2-4.6.4-2.8 3.7-3.6 1.9-3.6-7.7 0-5.2.4-9.8 1-10.1 1-.6 1.4.2 4.1 7.3 3.8 10.2 20.3 12.1 22.2 2.5.7-3.8-1-8.9-3.6-10.5-1.2-.8-5.3-2.7-9-4.3-15.3-6.4-19.2-19.4-8.8-28.8 4.8-4.3 9.3-5.3 16.1-3.6 4.8 1.2 5.1 1.2 6.6-.9 2.5-3.6 3.4-1.6 3.4 7.9zm43.8-.3c.2 7.4 0 9.2-1.1 9.2-.8 0-2.2-2-3.1-4.5-2.1-5.5-6.1-8.5-11.2-8.5s-8.4 3.1-8.4 8c0 4.7 2.1 6.6 12.8 11.5 12.2 5.6 16.6 11.8 14.8 20.7-.8 4-4.9 9.4-9 11.9-3.9 2.4-11.5 2.5-17.4.2-4.2-1.6-4.5-1.6-5.7 0-2.8 3.8-3.6 1.9-3.3-7.8.3-10.3 1.6-12.2 3.5-5.4 4.1 14.1 23.3 16.2 23.3 2.6 0-5.3-2.9-8.3-11-11.6-14.5-5.8-19-13.8-14-24.8 3.2-7.3 11.3-10.6 19.7-8.2 4.4 1.2 4.7 1.1 6.2-.9.9-1.2 2.1-2 2.6-1.8.6.1 1.1 4.4 1.3 9.4zm-174.3-6.6c2.9 1.3 5.5 5.5 5.5 8.8 0 5.4-8.6 8-11.6 3.5-1.1-1.7-1.1-2.5 0-4.7 1.9-3.5-.2-4.5-3.8-1.7-3.7 2.9-4.8 9.8-4.4 29.4l.3 17 3.8.3c2.4.2 3.7.8 3.7 1.8 0 1.2-2.2 1.4-13.5 1.2-7.9-.2-13.6-.7-13.8-1.3-.1-.6 1.5-1.1 3.6-1.3l3.7-.3v-22.4c0-21.2-.1-22.5-1.9-23.5-1.1-.5-3.1-1-4.5-1-1.6 0-2.6-.6-2.6-1.5 0-.8.3-1.5.8-1.5 8-.3 13.3-1 15-1.9 3.5-1.9 5.2-1.4 5.2 1.6v2.7l2.8-2.6c4.2-4 7.3-4.6 11.7-2.6zm41.6.4c7.1 2.1 14.2 9.3 16.4 16.7 3.3 11 1.3 23.6-4.9 31.1-4.9 6-10.6 8.6-18.7 8.6-14.8-.1-24.7-10.2-25.7-26.1-.8-14.4 5.3-25.7 16.3-29.9 6.2-2.4 9.6-2.4 16.6-.4zm42.3 0c.3.9.6 12.8.6 26.5V358l4 .6c2.4.4 4 1.2 4 2 0 1.1-2.7 1.4-13.6 1.4-10.1 0-13.5-.3-13.2-1.2.3-.7 1.9-1.6 3.6-2l3.2-.9v-44.8l-3.2-.3c-5.5-.5-4.2-3.1 2-4 2.9-.5 6.5-1.5 8-2.3 3.5-1.8 3.9-1.8 4.6.1zm128.5 0c8.3 2.4 9.1 4.4 9.1 23.9 0 19.3.8 26.5 2.8 27.2.8.4 3-.2 4.8-1.2 4.1-2.2 5.5-1.3 2.8 1.6-4.6 5.2-13.9 6.5-17.9 2.4-1.4-1.3-2.5-3-2.5-3.7 0-.6-1.6.3-3.5 2.2-3 2.9-4.3 3.4-9.4 3.8-6.7.5-10.2-1.2-12.7-6.1-2.7-5.1-1.1-11.1 4.5-16.7 4.5-4.5 8.7-6.5 17.4-8.4 2.7-.6 2.7-.7 2.7-8.4 0-11.7-4.2-17-11.6-14.5-3.4 1.1-7.5 6.4-5.6 7 4.6 1.7 5.7 8.2 1.8 10.8-5.6 3.7-11.6-2.3-9.6-9.7 2.7-9.4 14.4-13.9 26.9-10.2zm37.1 2v3.5l3.3-2.5c6.8-5.2 16.6-5.8 22.2-1.4 4.9 3.8 5.5 7 5.5 27.5 0 10.3.3 19.8.6 21 .4 1.6 1.5 2.3 3.8 2.5 1.7.2 3 .7 2.9 1.3-.2.6-5.7 1.1-13.4 1.3-10.3.2-13 0-12.7-1 .3-.7 2.1-1.4 4.2-1.6l3.8-.3-.4-22.1-.3-22-2.9-2.5c-3.7-3.2-8.6-2.6-12.8 1.3l-2.8 2.8V359h3.5c2.4 0 3.5.5 3.5 1.5 0 1.3-2.1 1.5-13.1 1.5-10 0-13-.3-12.7-1.3.3-.6 1.9-1.3 3.6-1.5l3.2-.3v-22.5c0-17.2-.3-22.4-1.2-22.5-.7-.1-2.4-.2-3.8-.2-1.4-.1-2.5-.8-2.5-1.6 0-.9 2.1-1.9 6.2-2.7 3.5-.7 7.3-2 8.5-2.8 3.2-2.3 3.8-2 3.8 2z"/><path d="M368.1 129c-.6 2.5-2 7.4-3.1 11-2.8 9.8-7.9 35.6-8.5 43.5l-.5 7 2.8-6c8.4-17.6 13.6-42.6 11.4-55l-.9-5-1.2 4.5zM402.8 252.1c-8.9 2.4-22.2 13-26.3 20.8-2.3 4.6-2.4 12.8-.1 16.7 6.1 10.3 18.5 7.2 24.7-6 3.6-7.7 5.1-15.4 4.7-24.9l-.3-7.4-2.7.8zM322.9 179.7c-3 7.7-7.5 27.2-8.4 36.9-.9 8.4.6 14.4 3.4 14.4 4.8 0 14.1-28.1 14.1-42.3 0-8.3-1.6-11.7-5.6-11.7-1.7 0-2.8.8-3.5 2.7zM318.9 250.5c-11.1 2.7-23.4 12.1-25.8 19.7-1.8 5.4.1 11.4 5 16 9.2 8.8 23.4 7.2 28.6-3.2 3-6.1 4.6-16.8 3.8-26.3-.7-7.5-.8-7.7-3.4-7.6-1.4 0-5.1.7-8.2 1.4zM196.5 208.7c-3.8 1-5.7 3.5-7.9 11-.7 2.3-.7 2.3 9.8 2.3H209v-2.6c0-4.4-2.9-9.2-6.2-10.3-1.7-.6-3.4-1-3.7-1-.3.1-1.5.4-2.6.6zM161.4 309.9c-1.8 1.1-4.1 4-5.5 6.8-2.1 4.2-2.3 6.3-2.4 16.8 0 9.3.4 13.1 1.8 16.7 2.5 6.4 6.6 9.8 12.1 9.8 4.9 0 7.5-2.2 10.1-8.3 3.5-8.3 2.8-30.3-1.1-37.8-1.6-3.2-6.1-5.9-9.6-5.9-1.3 0-3.7.9-5.4 1.9zM335.9 337.1c-5.2 2.3-7.9 6.1-7.9 11.2 0 7.6 7.8 10.9 12.7 5.3 2-2.3 2.3-3.8 2.3-10.7 0-8.9 0-8.9-7.1-5.8z"/></svg>